<svg  xmlns="http://www.w3.org/2000/svg" version="1.1" xmlns:xlink="http://www.w3.org/1999/xlink" xmlns:svgjs="http://svgjs.dev/svgjs" width="1000" height="750" viewBox="0 0 1000 750"><rect width="1000" height="750" fill="#ffffff"></rect><g transform="matrix(0.5191111111111111,0,0,0.5191111111111111,240.44444444444446,83)"><svg viewBox="0 0 320 360" data-background-color="#ffffff" preserveAspectRatio="xMidYMid meet" height="1125" width="1000" xmlns="http://www.w3.org/2000/svg" xmlns:xlink="http://www.w3.org/1999/xlink"><g id="tight-bounds" transform="matrix(1,0,0,1,0,0)"><svg viewBox="0 0 320 360" height="360" width="320"><g><svg></svg></g><g><svg viewBox="0 0 320 360" height="360" width="320"><g><path xmlns="http://www.w3.org/2000/svg" d="M165.217 303.356c-1.404-1.755-2.809-0.702-2.808-1.755-8.426 2.106-24.223-3.511-30.894-2.809 1.404-2.106-2.106-1.755-2.106-3.159-1.404 2.106-2.809 0-4.915 0.702-2.106-5.266-10.532-1.404-11.585-8.075-4.915 0-6.67-2.809-11.586-5.617 0.351-0.351 0.702-0.351 1.054-0.702-2.457-0.351-2.457-1.755-4.564-1.755l0.702-1.405c-3.862-0.702-5.266-6.67-10.883-8.776-1.755-0.351-5.617-6.319-7.723-7.724-1.053-0.702-2.809-0.702-0.352-1.053-0.351-0.351-0.351-1.053 0-1.404-2.457-0.702-2.809-2.809-5.968-3.862-0.351-1.053 0.702-1.755 0-2.457-0.702-0.351-1.755 0.351-2.457 0-0.351 6.319 6.67 7.021 8.777 12.287-0.702-0.702-1.755-2.809-2.458-1.404-0.351 1.053 2.809 4.915 2.809 2.808-1.053 0.702-1.404-1.053-0.703-1.404 1.053 1.755 3.16 1.404 3.16 2.809-1.053 1.053-2.457-1.053-2.106 0.702 3.16 1.755 2.809 3.511 4.563 5.968-1.404-1.755-1.755 1.404-3.159 0-0.351-5.266-6.319-4.213-6.319-9.479-0.702-1.755-1.404-0.351-2.458-1.053 1.404-1.404-4.213-6.319-4.213-4.564-1.755-2.106-0.702-2.809-1.053-4.213-1.404-0.351-0.351 1.404-1.404 0.351 1.404-2.457-1.755-5.617-3.862-8.074l1.405-0.702c-2.457-1.404-2.809-4.213-4.564-7.373-2.106 3.16 4.213 10.181 3.159 11.585 0 0.351 2.457 3.16 3.16 4.564 2.809 4.915 4.915 10.883 8.777 13.692-0.702-0.351-0.351-2.457 0.702-1.404 0 1.053-0.702 2.106-0.702 3.159 2.106 2.106 3.862 3.862 5.968 5.968-4.564-2.809-9.128-5.617-12.288-9.83 1.755-0.351 3.511 2.809 4.915 2.458-3.511-2.809-2.457-3.862-3.861-7.372-1.404-1.053 0.351 1.404-1.054 1.755-4.564-4.213-8.075-6.67-10.181-10.532 0.351-0.351 0.702-0.702 0.703-1.404-0.351-0.351-0.351-0.351-0.703-0.702 2.106 2.106 2.809 3.862 5.266 4.212-1.053-1.053 0-1.404-1.404-2.457-0.702-1.404-1.755 0.702-2.457-0.351 0.702-1.053 0-2.457 0-3.511-0.702 0-1.404 0-1.756-1.053-0.702-0.351-1.053 0-1.404 0.702-0.351-0.351-0.351-1.053-0.702-1.404v-0.351c-0.351-0.351-0.702-1.053-1.053-1.405-2.809-7.372-4.564-17.202-8.426-23.521 1.053-4.213-0.702-12.638-1.755-14.745 1.053-1.755 0.351-9.83-0.351-11.234-1.755 0.702 0.351 4.564-1.404 5.617-1.755-7.723 1.053-16.5 0.351-23.521 0.702 0 1.404 0 1.404-0.351-1.053-1.053 0.702-3.16 0.351-5.617 1.404-3.16-3.16 4.564-3.16 7.723-0.351 0.702-1.755 0-1.404 1.756 0 2.457 0.702 7.372-0.702 10.883-0.702 0-0.702-0.702-1.404-0.351-0.351 1.755-0.702 3.862-1.053 5.617-0.351-0.702-0.702-1.755-0.703-2.107-1.755-8.777 0-18.958-0.702-26.33 1.404 0 1.404-2.106 2.458-2.808-0.351 2.809-1.053 6.319 0.702 7.021 1.404-13.692 4.213-28.787 10.532-43.532 4.564-10.883 11.234-21.766 19.308-30.543 0.702 1.053-0.351 3.511 0 4.564 7.021-7.372 11.585-16.149 19.309-21.064 0.351 1.755-3.16 3.16-3.16 4.564 3.16-3.16 4.213-2.106 7.724-3.159 1.053-1.404-1.404 0-1.756-1.405 2.106-1.404 3.511-3.16 4.915-4.212 0 0.351-0.351 0.351-0.351 0.702 3.862-1.053 4.213-3.16 7.022-3.862-0.351-0.351-1.053-0.702-2.107-0.351 0.702-0.351 1.755-1.053 2.809-1.404-0.351 0-0.351 0.351-0.702 0.351 2.106-1.053 0.351 0.351 0.351 1.053 0.351 0 0.702-0.351 0.702-0.351-2.106 1.404-3.511 2.106-4.213 4.564 1.053-0.702 1.404 0 2.809-1.054 1.404-0.702-0.351-1.755 0.702-2.457 1.053 0.702 2.457 0.351 3.51 0.351 0-0.702 0.351-1.404 1.054-1.755 0.351-0.702 0-1.053-0.352-1.053 0.351-0.351 0.702-0.351 1.405-0.703 0 0 0.351 0 0.351 0.351 5.968-2.809 12.638-5.266 18.957-7.372 3.862-0.351 8.777-0.351 10.883-2.808-0.702 0-1.404 0.351-1.755 0 0.351 0 1.053-0.351 1.404-0.351 0.702 0.702 1.755 0 0.702 1.404 0.351 0 0.351 0 0.703-0.351 0 0.351 0 0.351 0.351 0.702 0.351 0 0.702-0.351 1.053-1.053 0.351 0 0.702 0 1.053-0.351l-0.351 0.351c2.809-0.702 5.266-0.351 9.128-1.054 0-0.351 0-0.702 0-1.053 0.702 0 1.053-0.351 1.755-0.351v0.351c1.404-0.702 2.809 0.702 2.808 0 0.351 0 0.351 0 0.703 0 0 0.702-0.351 1.053-0.351 1.405 1.755 0 2.809 0 3.51-1.054-0.351-0.351-0.702-0.351-1.053-0.351 0.702 0 1.404-0.351 2.106-0.702 1.053 0.351 1.404 0.702 1.405 2.107 1.755-3.16 7.372 0.702 9.829 0 1.053 0 0.702-1.404 1.405-2.107 0.351 0 0.702 0 1.053 0 1.755 1.404 4.213 2.809 7.372 3.16-2.809-0.702 0.351-1.053 0.702-1.405-0.702 0-0.702-0.351-0.702-0.702 1.053 0 2.106 0.351 3.16 0.351 0 0.702 0.351 1.053 1.053 1.054 0.702 0 0.702-0.351 0.702-1.054 1.053 0 1.755 0 2.809 0.351-0.351 1.404 1.755 1.755 2.457 2.809-2.809-0.702-5.968-1.755-7.021 0 11.234 2.457 23.521 5.968 35.457 11.936 0 0 0 0 0 0.351h0.352c2.106 1.053 4.213 2.106 6.319 3.16 1.404 0.702 2.457 1.404 3.861 2.457 0 0.351 0 0.702 0.703 0.702h0.351c1.404 1.053 2.809 1.755 4.212 2.809 1.404 2.106 2.809 4.915 5.266 4.213 5.266 8.075 10.883 11.234 15.447 19.659 0.351-1.404 1.404 3.16 3.16 3.511-2.809-0.351 1.755 1.755-1.053 1.404 2.457 2.457 3.16 3.511 3.51 6.319-0.702-1.404-1.053-1.755-1.404-0.351-0.351 2.106 2.457-0.351 3.511 1.756-2.106 0-1.404 1.404-1.054 3.159 1.053-1.053 0.702-2.106 1.756-1.755 1.404 1.404-0.702 1.755-0.351 2.809 1.053-1.404 1.404-0.702 2.808 0-1.755 0.351 1.053 2.809-1.053 1.755 1.404 1.755 1.755 2.809 1.053 4.564-1.404-2.106-0.351-3.511-2.457-3.16 4.213 3.511 2.106 11.585 7.021 12.287-3.16 0.702 0 2.106-1.755 2.458 2.106 0.702 1.053 3.511 3.51 4.213-0.351 1.755-1.053 2.809-1.404 4.563 1.053 1.404 1.404 4.213 3.16 4.564-1.053 1.053-0.351 3.862-1.404 4.915 1.404-0.702 2.106-0.702 3.159 0.702-1.755 1.404-0.351 2.809-1.404 3.16 3.16 8.075-0.702 24.575 1.053 30.894-2.106-1.053-1.404 2.457-2.808 2.457 2.457 1.053 0.351 2.809 1.404 4.564-4.915 2.809 0 10.532-6.67 12.287 0.702 4.915-2.106 7.021-4.213 12.288-0.351-0.351-0.351-0.702-0.702-1.054-0.351 2.457-1.755 2.809-1.054 4.915l-1.404-0.702c0 3.862-5.968 5.968-7.372 11.936-0.351 1.755-5.617 6.319-7.022 8.777-0.702 1.053-0.351 2.809-1.053 0.351-0.351 0.351-1.053 0.351-1.404 0.351-0.351 2.457-2.457 3.16-3.16 6.319-0.702 0.351-1.755-0.702-2.457 0.351 0 0.702 0.702 1.755 0.351 2.458 6.319-0.351 6.319-7.723 11.234-10.181-0.351 1.053-2.457 2.106-1.053 2.808 1.053 0 4.213-3.511 2.457-3.159 1.053 0.702-1.053 1.404-1.404 1.053 1.755-1.404 1.053-3.16 2.458-3.511 1.053 0.702-1.053 2.457 1.053 2.107 1.404-3.16 3.16-3.511 5.266-5.266-1.404 1.404 1.755 1.755 0.351 3.159-5.266 1.053-3.511 7.021-8.777 7.724-1.404 1.053-0.351 1.404-0.702 2.457-1.755-1.053-5.617 4.915-4.213 4.564-1.755 1.755-2.809 1.053-4.212 1.404-0.351 1.404 1.404 0.351 0.702 1.405-2.457-1.053-5.617 2.457-7.724 4.915l-1.053-1.054c-1.053 2.809-3.862 3.16-7.021 5.266 3.511 1.755 9.479-5.617 11.234-4.564 0.351 0 3.16-2.809 4.213-3.861 4.564-3.511 10.181-6.319 12.287-10.181-0.351 0.702-2.457 0.702-1.404-0.351 1.053-0.351 2.106 0.351 3.159 0.351 5.617-7.723 12.638-14.043 17.905-23.17 0.351-0.351 0.702-1.053 1.053-1.756-0.702 2.106-1.755 3.862-2.458 5.968-5.617 3.862-7.723 15.096-14.393 16.851 0.351 3.862-3.16 4.915-4.915 9.479-1.053 1.404-1.755-1.053-2.809 0.702 1.053 4.915-8.777 4.564-8.425 9.128-0.702 0.351-1.755 0.702-2.458 1.404h-0.351c-0.351 0.351-0.351 0.351-0.702 0.702-1.755 1.053-3.16 2.106-4.564 3.16-4.915 2.809-11.585 4.915-16.851 7.723v-0.351c-1.404 0.702-3.16 0.351-2.809 1.756-1.053 0.702-2.106 1.404-3.159 2.106-0.351 0-0.351 0-0.702 0 0 0-0.351-0.351-0.702-0.351-0.702 0-0.702 0-1.054 0.351-4.564 0.351-10.532 2.457-12.287 3.862-1.755-1.053-9.83 0.702-11.234 1.404 0.702 1.053 2.809 0 4.564 0-1.053 0.351-2.106 0.702-2.458 1.404-0.351 0-0.351 0-0.702 0-0.351-1.053-1.404 0-1.755-0.351h0.351c-0.351-1.404-1.404-2.106-3.16-1.755 0 0.702 0 1.053-0.351 1.755 0.702 0 2.809-1.053 2.809 0-0.351 0-0.351 0.351 0 0.351-0.702 0.702-1.755 0.702-2.458 1.054-1.404 0-3.16 0-4.563 0-0.351-0.351-0.702-0.351-1.405-0.703-0.351 0.351-1.053 0.351-1.404 0.703-2.106 0-4.564 0.351-6.319 0.702 0-0.702 0-1.404-0.702-1.405-1.053 1.404-3.16-0.351-5.617 0.352-2.457-0.702 1.404 1.053 4.915 1.755-0.351 0.351-0.702 0.702-1.756 1.053M116.068 308.271c-4.915-4.564-15.096-6.67-16.851-10.181-2.809-0.351-7.021-5.617-10.532-6.319 1.755 0 0.351-1.053 0-1.755-0.702 0.702-1.404 1.053-2.106 1.053 0-2.809-2.809-4.564-5.266-6.319 1.755 1.053 3.16 1.755 5.266 2.106 0-0.702 0-1.404 0.702-1.404 2.457 2.457 5.266 4.915 8.425 7.372 4.213 3.862 25.979 13.692 29.841 15.447 0 0-0.702 1.404-0.351 1.404 1.755 1.053 3.16-1.053 3.511 1.404-5.617 0.702-7.723-3.16-12.639-2.808M277.909 226.824v0.351 0c-0.351 0 0-0.351 0-0.351M136.079 64.281c-0.351 0.351-0.702 0.351-0.702 0.351 0-0.351 0.351-0.351 0.702-0.351M129.409 66.036c0 0.351 0 0.351 0 0 0 0.351 0 0.351 0 0 0 0.351 0 0 0 0M106.238 73.408v0c0.351-0.351 0.351-0.351 0.703-0.351-0.351 0-0.702 0.351-0.703 0.351M162.409 61.823c-0.702 0-1.053 0-1.404-0.351 0.351 0 0.702 0 1.053 0h0.351c0 0 0 0 0 0.351M168.728 62.525c-0.351-0.351-1.404-0.702-2.457-0.702 0-0.351 0.351-0.702 0.351-0.702 0.351 0 0.702 0 1.053 0 0 0 0.351 0 0.351 0.351 0 0 0 0 0-0.351 0.351 0 0.351 0 0.702 0 0.351 0.702 0.702 1.053 0 1.404M180.313 63.579c-1.755 0.351-2.809-0.351-4.564-1.405 1.053 0 2.457 0.351 3.511 0.702 0.351 0 0.702 0.351 1.053 0.703M305.292 113.43c-0.702 0.351-1.053 0.351-1.755-1.053-5.617-11.936-15.798-29.138-30.543-43.532-14.394-14.745-33.702-26.681-51.255-33.001 1.053 0.351 2.457 1.053 1.755 1.756-15.447-5.968-30.192-9.479-44.234-10.883-37.915-5.968-77.585 2.106-108.128 21.766 0.351 0.702 0.351 1.053-0.702 1.755-11.234 7.021-27.032 19.309-39.671 35.458-12.638 16.149-22.468 36.511-26.681 54.766 0.351-1.053 0.702-2.809 1.405-2.107-9.128 36.16-6.67 67.053 5.968 93.735 0.702-0.702-1.755-4.213 0.351-3.862 1.404 3.862 3.16 8.075 5.266 11.936 2.457 5.617 5.266 12.989 9.128 14.745-9.83-19.309-16.5-41.426-17.203-61.085 1.404 2.809 1.053 8.777 3.16 11.234 0.702-13.34-2.457-31.245 2.106-43.883-1.053 6.67-1.755 15.798-1.053 24.925 0 6.67 3.16 25.277 5.266 27.032-0.351-0.351-0.351-2.106 0-2.106 1.053 2.106-1.404 3.16 0.351 3.511 0-0.702 0.351-0.702 0.702-0.703 3.511 7.723 8.075 19.66 11.585 25.628 4.213 7.723 9.83 14.745 16.149 21.064 0 0.351 0.351 0.351 0.352 0.702 0.702 1.755 3.16 3.862 3.861 5.266 0.351 0.702-0.351 1.755 0 2.458 5.266 9.83 12.989 19.66 22.468 27.383 5.968 7.021 15.447 14.394 27.032 20.713 11.234 5.968 24.223 10.883 36.16 13.691 8.426 2.106 18.606 2.457 24.926 3.862 8.426 1.755 23.17-0.702 30.542-2.107 44.234-6.67 88.117-36.862 110.235-80.393 22.819-43.883 22.117-97.596 2.457-138.671" fill="#ffa96a" fill-rule="nonzero" stroke="none" stroke-width="1" stroke-linecap="butt" stroke-linejoin="miter" stroke-miterlimit="10" stroke-dasharray="" stroke-dashoffset="0" font-family="none" font-weight="none" font-size="none" text-anchor="none" style="mix-blend-mode: normal" data-fill-palette-color="tertiary"></path></g><g transform="matrix(1,0,0,1,80,169.78189235838695)"><svg viewBox="0 0 160 20.43621528322611" height="20.43621528322611" width="160"><g><svg viewBox="0 0 160 20.43621528322611" height="20.43621528322611" width="160"><g><svg viewBox="0 0 160 20.43621528322611" height="20.43621528322611" width="160"><g><svg viewBox="0 0 160 20.43621528322611" height="20.43621528322611" width="160"><g id="textblocktransform"><svg viewBox="0 0 160 20.43621528322611" height="20.43621528322611" width="160" id="textblock"><g><svg viewBox="0 0 160 20.43621528322611" height="20.43621528322611" width="160"><g transform="matrix(1,0,0,1,0,0)"><svg width="160" viewBox="0.45000001788139343 -38.75 318.6199951171875 40.70000076293945" height="20.43621528322611" data-palette-color="#ffa96a"><path d="M24.35-26.35Q24.1-27.15 22.43-27.78 20.75-28.4 18.05-28.4L18.05-28.4Q15.1-28.4 13.45-26.75 11.8-25.1 11.8-22.6L11.8-22.6Q11.8-21.05 12.93-20.23 14.05-19.4 16.4-18.4L16.4-18.4 18.2-17.65 19.7-16.95Q22.4-15.75 23.98-14.78 25.55-13.8 26.65-12.1 27.75-10.4 27.75-7.75L27.75-7.75Q27.75-4.9 25.88-2.83 24-0.75 20.65 0.33 17.3 1.4 12.85 1.4L12.85 1.4Q9.55 1.4 6.68 0.38 3.8-0.65 2.13-2.2 0.45-3.75 0.45-5.25L0.45-5.25Q0.45-6.7 1.7-7.63 2.95-8.55 5.25-8.9L5.25-8.9Q5.5-7.45 6.95-6.3 8.4-5.15 10.33-4.48 12.25-3.8 13.7-3.8L13.7-3.8Q16.35-3.8 18.43-4.85 20.5-5.9 20.5-7.75L20.5-7.75Q20.5-9.3 19.03-10.33 17.55-11.35 14.6-12.55L14.6-12.55 11.95-13.75Q8.7-15.35 6.8-17.35 4.9-19.35 4.9-22.65L4.9-22.65Q4.9-26.3 6.95-28.58 9-30.85 11.93-31.85 14.85-32.85 17.65-32.85L17.65-32.85Q22.1-32.85 24.98-31.7 27.85-30.55 29.15-28.8 30.45-27.05 30.45-25.2L30.45-25.2Q30.45-24.15 29.93-22.65 29.4-21.15 28.38-20.05 27.35-18.95 25.9-18.95L25.9-18.95Q23.4-18.95 23.4-21.55L23.4-21.55Q23.5-22.35 23.85-24.18 24.2-26 24.35-26.35L24.35-26.35ZM52.35-0.15Q52.15 0.7 51.45 1.03 50.75 1.35 49.6 1.35L49.6 1.35Q46.15 1.35 46.15-0.2L46.15-0.2 46.45-2.1Q45.05-1.05 43.15 0 41.25 1.05 40 1.05L40 1.05Q32.6 1.05 32.6-3.8L32.6-3.8Q32.6-12.05 37.55-21.7L37.55-21.7Q38.15-22.85 38.82-23.35 39.5-23.85 41.15-23.85L41.15-23.85Q42.9-23.85 43.77-23.38 44.65-22.9 44.65-22.25L44.65-22.25Q44.65-22.1 44.1-21.35L44.1-21.35Q43.55-20.7 43.15-20.05L43.15-20.05Q38.45-12.2 38.45-4.75L38.45-4.75Q38.45-4.1 38.95-3.6 39.45-3.1 39.85-3.1L39.85-3.1Q40.95-3.1 43.57-4.15 46.2-5.2 47.6-6.3L47.6-6.3 48.6-10.35Q50.4-17.6 50.85-19.25L50.85-19.25Q51.4-21.25 52.27-22.53 53.15-23.8 55.05-23.8L55.05-23.8Q57.7-23.8 57.7-22.2L57.7-22.2Q57.7-21.95 57.57-21.58 57.45-21.2 57.4-20.95L57.4-20.95 55.4-12.85Q53-3.2 52.35-0.15L52.35-0.15ZM62-22.85Q61.85-23 61.85-23.2L61.85-23.2Q61.85-23.7 62.95-24.03 64.05-24.35 66-24.35L66-24.35Q67.75-24.35 68.35-23.38 68.95-22.4 69.1-20.85L69.1-20.85Q69-20.45 68.9-19.75L68.9-19.75 68.65-18.55Q70.1-20.25 72.95-21.88 75.8-23.5 77.4-23.5L77.4-23.5Q79.9-23.5 80.87-22.63 81.85-21.75 82-19.3L82-19.3Q83.85-21.05 86.25-22.28 88.65-23.5 90.45-23.5L90.45-23.5Q92.34-23.5 93.95-22.73 95.55-21.95 95.55-20.25L95.55-20.25Q95.55-19.8 95.5-19.55L95.5-19.55Q95.34-18.75 94.92-17.32 94.5-15.9 94.3-15.25L94.3-15.25Q93.05-11.2 92.37-8.43 91.7-5.65 91.55-3L91.55-3 92.25-0.55Q91.65 0.6 90.57 1.28 89.5 1.95 87.45 1.95L87.45 1.95Q86.25 1.95 85.7 1.15 85.15 0.35 85.15-0.85L85.15-0.85Q85.15-1.1 85.2-1.4 85.25-1.7 85.25-1.95L85.25-1.95Q85.35-4.75 86.07-7.63 86.8-10.5 87.95-14.1L87.95-14.1Q89-17.25 89-17.95L89-17.95Q89-18.25 88.92-18.57 88.85-18.9 88.75-18.9L88.75-18.9Q87.6-18.9 84.97-17.8 82.35-16.7 81.45-15.6L81.45-15.6Q80.5-12.55 78.3-2.9L78.3-2.9 78-1.5Q77.75-0.2 77.52 0.3 77.3 0.8 76.65 1.05 76 1.3 74.55 1.3L74.55 1.3Q71.1 1.3 71.1-0.1L71.1-0.1Q71.5-1.2 73.3-8.55L73.3-8.55Q74.4-13.1 75.8-18.6L75.8-18.6Q75.5-18.45 74.7-18.15L74.7-18.15Q72.3-17.2 70.52-16.2 68.75-15.2 67.65-13.85L67.65-13.85 66.35-8.55Q66.05-7.35 65.8-6.33 65.55-5.3 65.35-4.6L65.35-4.6Q65.1-3.75 65-2.3L65-2.3Q64.9-1.3 64.72-0.85 64.55-0.4 63.87-0.13 63.2 0.15 61.75 0.15L61.75 0.15Q60.1 0.15 59.25-0.2 58.4-0.55 58.4-1.7L58.4-1.7Q58.4-2.25 59.67-7.55 60.95-12.85 63.15-21.35L63.15-21.35 62-22.85ZM116.69-2.6Q116.79-1.3 117.04-0.25L117.04-0.25Q116.94 0.05 116.17 0.35 115.39 0.65 114.84 0.65L114.84 0.65Q113.04 0.65 112.27 0.13 111.49-0.4 111.49-1.45L111.49-1.45Q111.49-2.45 111.69-3.45L111.69-3.45Q110.59-1.95 108.47-0.98 106.34 0 105.04 0L105.04 0Q101.69 0 99.47-1.95 97.24-3.9 97.24-8.2L97.24-8.2Q97.24-12.25 99.17-15.83 101.09-19.4 104.49-21.58 107.89-23.75 112.04-23.75L112.04-23.75Q112.84-23.75 114.14-23.33 115.44-22.9 116.77-21.88 118.09-20.85 118.99-19.25L118.99-19.25Q119.39-19.25 119.94-18.85 120.49-18.45 120.49-18.05L120.49-18.05Q120.49-17.6 120.34-17.15L120.34-17.15 116.69-2.6ZM114.44-16.6Q114.14-17.7 113.27-18.45 112.39-19.2 111.69-19.2L111.69-19.2Q109.39-19.2 107.37-17.57 105.34-15.95 104.09-13.55 102.84-11.15 102.84-9L102.84-9Q102.84-6.9 103.34-5.55 103.84-4.2 105.29-4.2L105.29-4.2Q106.54-4.2 108.17-4.95 109.79-5.7 111.07-6.98 112.34-8.25 112.74-9.65L112.74-9.65 114.44-16.6ZM125.84-22.85Q125.69-23 125.69-23.2L125.69-23.2Q125.69-23.7 126.79-24.03 127.89-24.35 129.84-24.35L129.84-24.35Q131.64-24.35 132.49-23.43 133.34-22.5 133.49-21.2L133.49-21.2 132.59-17.95Q133.64-19.4 135.54-20.73 137.44-22.05 139.39-22.85 141.34-23.65 142.59-23.65L142.59-23.65Q145.24-23.65 146.44-22.68 147.64-21.7 147.64-19.6L147.64-19.6Q144.69-11.9 143.74-3L143.74-3 144.44-0.55Q143.84 0.6 142.77 1.28 141.69 1.95 139.64 1.95L139.64 1.95Q138.44 1.95 137.89 1.15 137.34 0.35 137.34-0.85L137.34-0.85Q137.34-4.2 138.32-8.22 139.29-12.25 140.59-16.45L140.59-16.45Q141.09-18.05 141.09-18.1L141.09-18.1Q141.09-18.8 140.29-18.8L140.29-18.8Q139.19-18.8 136.97-17.25 134.74-15.7 132.39-12.03 130.04-8.35 128.59-2.4L128.59-2.4Q128.49-2.1 128.34-1.3 128.19-0.5 127.54-0.18 126.89 0.15 125.44 0.15L125.44 0.15Q123.79 0.15 123.02-0.2 122.24-0.55 122.24-1.7L122.24-1.7Q122.39-2.4 122.69-3.4L122.69-3.4Q125.59-15.05 127.14-21.35L127.14-21.35 125.84-22.85ZM192.54-33.4Q194.39-33.05 194.96-32.83 195.54-32.6 195.74-32.15L195.74-32.15Q194.69-28.1 192.99-20.68 191.29-13.25 190.69-10.7L190.69-10.7Q189.59-5.6 188.64-1.65L188.64-1.65Q187.94 1.1 186.44 1.1L186.44 1.1Q182.49 1.1 181.94-0.5L181.94-0.5 181.84-0.4 173.69-22.2 170.59-9.6Q169.69-6.15 168.64-1.8L168.64-1.8Q168.29-0.35 167.56 0.15 166.84 0.65 164.84 0.65L164.84 0.65Q163.29 0.65 162.56 0.13 161.84-0.4 161.84-1.65L161.84-1.65Q161.84-2.2 161.99-2.7L161.99-2.7 168.84-29.75Q169.39-31.95 170.01-32.68 170.64-33.4 172.29-33.4L172.29-33.4Q173.64-33.4 174.69-33.1 175.74-32.8 175.79-32.2L175.79-32.2 175.79-32.05 183.84-9.75Q187.09-25.45 187.99-28.2L187.99-28.2Q188.69-30.3 189.89-31.7 191.09-33.1 192.54-33.4L192.54-33.4ZM175.74-32.25L175.74-32.25ZM181.84-1.05L181.84-1.05ZM216.38-2.6Q216.48-1.3 216.73-0.25L216.73-0.25Q216.63 0.05 215.86 0.35 215.08 0.65 214.53 0.65L214.53 0.65Q212.73 0.65 211.96 0.13 211.18-0.4 211.18-1.45L211.18-1.45Q211.18-2.45 211.38-3.45L211.38-3.45Q210.28-1.95 208.16-0.98 206.03 0 204.73 0L204.73 0Q201.38 0 199.16-1.95 196.93-3.9 196.93-8.2L196.93-8.2Q196.93-12.25 198.86-15.83 200.78-19.4 204.18-21.58 207.58-23.75 211.73-23.75L211.73-23.75Q212.53-23.75 213.83-23.33 215.13-22.9 216.46-21.88 217.78-20.85 218.68-19.25L218.68-19.25Q219.08-19.25 219.63-18.85 220.18-18.45 220.18-18.05L220.18-18.05Q220.18-17.6 220.03-17.15L220.03-17.15 216.38-2.6ZM214.13-16.6Q213.83-17.7 212.96-18.45 212.08-19.2 211.38-19.2L211.38-19.2Q209.08-19.2 207.06-17.57 205.03-15.95 203.78-13.55 202.53-11.15 202.53-9L202.53-9Q202.53-6.9 203.03-5.55 203.53-4.2 204.98-4.2L204.98-4.2Q206.23-4.2 207.86-4.95 209.48-5.7 210.76-6.98 212.03-8.25 212.43-9.65L212.43-9.65 214.13-16.6ZM238.88-19.35Q238.28-19.65 237.38-19.65L237.38-19.65Q235.13-19.65 232.88-18.75 230.63-17.85 230.63-16.45L230.63-16.45Q230.63-15.45 231.53-14.85 232.43-14.25 234.38-13.5L234.38-13.5Q236.48-12.65 237.78-11.9 239.08-11.15 240.06-9.73 241.03-8.3 241.03-6.1L241.03-6.1Q241.03-2.5 238.06-0.58 235.08 1.35 230.08 1.35L230.08 1.35Q227.63 1.35 225.53 0.6 223.43-0.15 222.21-1.33 220.98-2.5 220.88-3.65L220.88-3.65Q220.88-4.85 221.93-5.63 222.98-6.4 224.88-6.65L224.88-6.65Q224.93-5.65 225.93-4.78 226.93-3.9 228.31-3.38 229.68-2.85 230.68-2.85L230.68-2.85Q232.38-2.85 233.78-3.78 235.18-4.7 235.18-5.95L235.18-5.95Q235.18-8.25 230.73-9.6L230.73-9.6Q227.88-10.45 226.36-12.3 224.83-14.15 224.83-16.2L224.83-16.2Q224.83-20.25 228.51-22.03 232.18-23.8 237.88-23.8L237.88-23.8Q241.08-23.8 242.83-23.05 244.58-22.3 244.58-20.45L244.58-20.45Q244.58-19.2 243.66-18.25 242.73-17.3 241.03-17.3L241.03-17.3Q239.53-17.3 239.11-17.53 238.68-17.75 238.63-18.3L238.63-18.3Q238.63-18.8 238.88-19.35L238.88-19.35ZM270.28-22.4Q270.48-22.1 270.8-21.28 271.13-20.45 271.13-20L271.13-20Q271.13-19.75 271.08-19.7L271.08-19.7Q270.83-19.4 269.93-19.2 269.03-19 268.73-18.95L268.73-18.95Q267.18-17.95 263.8-15.78 260.43-13.6 258.88-12.6L258.88-12.6Q258.98-11.4 260.68-8.93 262.38-6.45 264.33-4.25 266.28-2.05 266.68-2.05L266.68-2.05Q267.13-2.05 267.8-1.3 268.48-0.55 268.48 0.05L268.48 0.05Q268.48 0.6 267.78 0.75L267.78 0.75Q267.33 0.85 266.1 1.1 264.88 1.35 263.98 1.35L263.98 1.35Q263.18 1.35 262.73 1.15L262.73 1.15Q261.58 0.75 259.6-1.53 257.63-3.8 255.83-6.63 254.03-9.45 253.48-11.5L253.48-11.5Q251.88-5.05 251.23-2.68 250.58-0.3 250.18 0.43 249.78 1.15 249.23 1.15L249.23 1.15 247.83 1.2Q244.53 1.2 244.38-1.45L244.38-1.45Q245.38-3.9 245.78-5.5L245.78-5.5Q250.73-23.85 252.83-33.15L252.83-33.15Q252.78-33.9 252.73-35.23 252.68-36.55 252.68-37.3L252.68-37.3Q252.83-37.95 253.8-38.35 254.78-38.75 255.58-38.75L255.58-38.75Q256.83-38.75 258.23-37.9 259.63-37.05 259.68-35.85L259.68-35.85 255.23-18.4 254.38-14.95Q255.43-16.25 257.95-18.15 260.48-20.05 263.15-21.55 265.83-23.05 267.43-23.35L267.43-23.35Q267.83-23.35 268.9-23.1 269.98-22.85 270.28-22.4L270.28-22.4ZM291.03-2.6Q291.13-1.3 291.38-0.25L291.38-0.25Q291.28 0.05 290.5 0.35 289.73 0.65 289.18 0.65L289.18 0.65Q287.38 0.65 286.6 0.13 285.83-0.4 285.83-1.45L285.83-1.45Q285.83-2.45 286.03-3.45L286.03-3.45Q284.93-1.95 282.8-0.98 280.68 0 279.38 0L279.38 0Q276.03 0 273.8-1.95 271.58-3.9 271.58-8.2L271.58-8.2Q271.58-12.25 273.5-15.83 275.43-19.4 278.83-21.58 282.23-23.75 286.38-23.75L286.38-23.75Q287.18-23.75 288.48-23.33 289.78-22.9 291.1-21.88 292.43-20.85 293.33-19.25L293.33-19.25Q293.73-19.25 294.28-18.85 294.83-18.45 294.83-18.05L294.83-18.05Q294.83-17.6 294.68-17.15L294.68-17.15 291.03-2.6ZM288.78-16.6Q288.48-17.7 287.6-18.45 286.73-19.2 286.03-19.2L286.03-19.2Q283.73-19.2 281.7-17.57 279.68-15.95 278.43-13.55 277.18-11.15 277.18-9L277.18-9Q277.18-6.9 277.68-5.55 278.18-4.2 279.63-4.2L279.63-4.2Q280.88-4.2 282.5-4.95 284.13-5.7 285.4-6.98 286.68-8.25 287.08-9.65L287.08-9.65 288.78-16.6ZM302.82-1.9Q302.77-1.6 302.6-0.73 302.42 0.15 301.75 0.5 301.07 0.85 299.62 0.85L299.62 0.85Q297.97 0.85 297.22 0.5 296.47 0.15 296.47-1L296.47-1 298.87-10.55Q300.87-18.8 301.52-21.05L301.52-21.05 300.27-22.55Q300.12-22.7 300.12-22.9L300.12-22.9Q300.12-23.4 301.22-23.73 302.32-24.05 304.27-24.05L304.27-24.05Q306.02-24.05 306.62-23.08 307.22-22.1 307.37-20.55L307.37-20.55 307.02-19.25Q308.62-21.2 310.75-22.48 312.87-23.75 314.52-23.75L314.52-23.75Q316.67-23.75 317.87-23 319.07-22.25 319.07-21.05L319.07-21.05Q319.07-20 318.35-18.88 317.62-17.75 316.52-16.98 315.42-16.2 314.37-16.1L314.37-16.1Q313.37-16.1 313.02-16.35 312.67-16.6 312.67-17.1L312.67-17.1 312.97-18.75Q308.97-17.65 305.72-13.45L305.72-13.45 302.82-1.9Z" opacity="1" transform="matrix(1,0,0,1,0,0)" fill="#ffa96a" class="undefined-text-0" data-fill-palette-color="primary" id="text-0"></path></svg></g></svg></g></svg></g></svg></g><g></g></svg></g></svg></g></svg></g></svg></g><defs></defs></svg><rect width="320" height="360" fill="none" stroke="none" visibility="hidden"></rect></g></svg></g></svg>